#tb 0: 1/25
#media_type 0: video
#codec_id 0: rawvideo
#dimensions 0: 192x240
#sar 0: 0/1
0,          0,          0,        1,    69120, 0x28326a13
0,          1,          1,        1,    69120, 0x1f41a4a7
0,          2,          2,        1,    69120, 0x803ceeb4
0,          3,          3,        1,    69120, 0x1eba4049
0,          4,          4,        1,    69120, 0x61a25512
0,          5,          5,        1,    69120, 0x4db37e41
0,          6,          6,        1,    69120, 0x00f69308
0,          7,          7,        1,    69120, 0x7478c70f
0,          8,          8,        1,    69120, 0xba1bd40b
0,          9,          9,        1,    69120, 0x31d416bc
0,         10,         10,        1,    69120, 0xd0c042bd
0,         11,         11,        1,    69120, 0xe7a75aba
0,         12,         12,        1,    69120, 0xb4235b4c
0,         13,         13,        1,    69120, 0xaad387c3
0,         14,         14,        1,    69120, 0xb97aab7a
0,         15,         15,        1,    69120, 0x1acdda47
0,         16,         16,        1,    69120, 0x2c95f726
0,         17,         17,        1,    69120, 0xba3f2ebb
0,         18,         18,        1,    69120, 0x15fc4901
0,         19,         19,        1,    69120, 0x56387074
0,         20,         20,        1,    69120, 0xe9638772
0,         21,         21,        1,    69120, 0x344db5ec
0,         22,         22,        1,    69120, 0xf54bd087
0,         23,         23,        1,    69120, 0x5b35fbe4
0,         24,         24,        1,    69120, 0x052c0947
0,         25,         25,        1,    69120, 0xe562417c
0,         26,         26,        1,    69120, 0x502a4776
0,         27,         27,        1,    69120, 0x46b05919
0,         28,         28,        1,    69120, 0x103161a1
0,         29,         29,        1,    69120, 0xd83e8318
0,         30,         30,        1,    69120, 0xd7ce8fb1
0,         31,         31,        1,    69120, 0xda3f8ac5
0,         32,         32,        1,    69120, 0xecd17de1
0,         33,         33,        1,    69120, 0x7beeab11
0,         34,         34,        1,    69120, 0xb295b81f
0,         35,         35,        1,    69120, 0x785ec9ab
0,         36,         36,        1,    69120, 0x58a3c317
0,         37,         37,        1,    69120, 0x05feda91
0,         38,         38,        1,    69120, 0xd21fdcab
0,         39,         39,        1,    69120, 0x0d6ce0ee
0,         40,         40,        1,    69120, 0x40ddc715
0,         41,         41,        1,    69120, 0x5489d3e1
0,         42,         42,        1,    69120, 0x7f57c42b
0,         43,         43,        1,    69120, 0xd470cca3
0,         44,         44,        1,    69120, 0xfb80c51c
0,         45,         45,        1,    69120, 0x76b1d068
0,         46,         46,        1,    69120, 0x5b01d81e
0,         47,         47,        1,    69120, 0x21cfc241
